<?xml version="1.0" encoding="UTF-8" standalone="no"?>
<svg
   xmlns:dc="http://purl.org/dc/elements/1.1/"
   xmlns:cc="http://creativecommons.org/ns#"
   xmlns:rdf="http://www.w3.org/1999/02/22-rdf-syntax-ns#"
   xmlns:svg="http://www.w3.org/2000/svg"
   xmlns="http://www.w3.org/2000/svg"
   width="56.632812pt"
   height="56.667969pt"
   viewBox="0 0 56.632812 56.667968"
   version="1.2"
   id="svg46">
  <metadata
     id="metadata50">
    <rdf:RDF>
      <cc:Work
         rdf:about="">
        <dc:format>image/svg+xml</dc:format>
        <dc:type
           rdf:resource="http://purl.org/dc/dcmitype/StillImage" />
        <dc:title></dc:title>
      </cc:Work>
    </rdf:RDF>
  </metadata>
  <defs
     id="defs31">
    <clipPath
       id="clip1">
      <path
         d="M 0.0585938,0 H 56.691406 V 57 H 0.0585938 Z m 0,0"
         id="path28" />
    </clipPath>
  </defs>
  <g
     id="surface11597"
     transform="translate(-0.0585938)">
    <g
       clip-path="url(#clip1)"
       clip-rule="nonzero"
       id="g35">
      <path
         style="fill:#211e1e;fill-opacity:1;fill-rule:nonzero;stroke:none"
         d="M 0.0585938,-0.0273438 H 56.691406 V 56.667969 H 0.0585938 Z m 0,0"
         id="path33" />
    </g>
    <path
       style="fill:#ffffff;fill-opacity:1;fill-rule:nonzero;stroke:none"
       d="m 24.066406,16.117188 4.28125,-4.28125 4.28125,4.28125 L 34.996094,13.75 30.71875,9.464844 34.996094,5.1875 32.628906,2.816406 28.347656,7.097656 24.066406,2.816406 21.695312,5.1875 25.980469,9.464844 21.695312,13.75 l 2.371094,2.367188"
       id="path37" />
    <path
       style="fill:#ffffff;fill-opacity:1;fill-rule:nonzero;stroke:none"
       d="m 24.066406,31.871094 4.28125,-4.277344 4.28125,4.277344 2.367188,-2.367188 -4.277344,-4.28125 4.277344,-4.28125 -2.367188,-2.371094 -4.28125,4.28125 -4.28125,-4.28125 -2.371094,2.371094 4.285157,4.28125 -4.285157,4.28125 2.371094,2.367188"
       id="path39" />
    <path
       style="fill:#ffffff;fill-opacity:1;fill-rule:nonzero;stroke:none"
       d="m 24.066406,53.800781 4.28125,-4.28125 4.28125,4.28125 2.367188,-2.367187 -4.277344,-4.28125 4.277344,-4.28125 L 32.628906,40.5 28.347656,44.78125 24.066406,40.5 l -2.371094,2.371094 4.285157,4.28125 -4.285157,4.28125 2.371094,2.367187"
       id="path41" />
    <path
       style="fill:#ffffff;fill-opacity:1;fill-rule:nonzero;stroke:none"
       d="m 41.234375,16.054688 -4.925781,0.226562 c 0,0 0.703125,5.203125 0.402344,10.457031 -0.285157,5.015625 -1.074219,5.898438 -1.074219,5.898438 -1.113281,2.085937 -4.558594,2.597656 -6.320313,2.730469 -1.769531,0.140624 -2.558594,0.04297 -2.558594,0.04297 0,0 -5.082031,-0.195312 -6.222656,-2.5625 C 19.886719,31.5 19.75,28.851562 19.75,28.851562 c 0,0 -0.03125,-12.40625 -0.07813,-12.683593 -0.02734,-0.152344 -1.027344,0.109375 -2.183594,0.101562 -0.945312,-0.0039 -2.324219,-0.06641 -2.324219,-0.06641 l 0.410157,9.113281 -0.05469,5.386719 c 0,0 0,2.890625 0.738281,4.042969 1.253907,1.957031 2.644532,2.65625 3.433594,3.027344 0.789063,0.375 2.042969,0.746093 3.4375,1.023437 1.394532,0.28125 3.71875,0.425781 6.78125,-0.359375 3.066406,-0.789062 4.421875,-2.179688 4.421875,-2.179688 l 2.324219,-2.183593 -0.0078,5.160156 4.878906,-1.4375 c 0,0 -0.640625,-4.089844 -0.636719,-11.058594 0.0078,-6.96875 0.34375,-10.683593 0.34375,-10.683593"
       id="path43" />
  </g>
</svg>
