<?xml version="1.0" encoding="UTF-8" standalone="no"?>
<svg
   xmlns:dc="http://purl.org/dc/elements/1.1/"
   xmlns:cc="http://creativecommons.org/ns#"
   xmlns:rdf="http://www.w3.org/1999/02/22-rdf-syntax-ns#"
   xmlns:svg="http://www.w3.org/2000/svg"
   xmlns="http://www.w3.org/2000/svg"
   width="109.62716pt"
   height="109.62716pt"
   viewBox="0 0 109.62716 109.62716"
   version="1.2"
   id="svg162">
  <metadata
     id="metadata166">
    <rdf:RDF>
      <cc:Work
         rdf:about="">
        <dc:format>image/svg+xml</dc:format>
        <dc:type
           rdf:resource="http://purl.org/dc/dcmitype/StillImage" />
        <dc:title></dc:title>
      </cc:Work>
    </rdf:RDF>
  </metadata>
  <defs
     id="defs91">
    <clipPath
       id="clip1">
      <path
         d="M 0,0 H 210.47266 V 62.523438 H 0 Z m 0,0"
         id="path88" />
    </clipPath>
  </defs>
  <g
     id="surface42180"
     transform="translate(-13.503906,-5.3700431)">
    <path
       style="fill:#211e1e;fill-opacity:1;fill-rule:nonzero;stroke:none"
       d="M 25.84375,77.292969 13.503906,43.941406 h 7.40625 L 30.484375,69.75 39.761719,43.941406 h 4.976562 L 32.78125,77.292969 Z m 0,0"
       id="path99" />
    <path
       style="fill:#211e1e;fill-opacity:1;fill-rule:nonzero;stroke:none"
       d="m 48.773438,43.945312 h 6.941406 v 20.453126 c 0,3.699218 0.628906,6.148437 1.882812,7.351562 1.253906,1.203125 2.882813,1.800781 4.878906,1.800781 1.96875,0 3.535157,-0.589843 4.699219,-1.777343 1.164063,-1.191407 1.746094,-3.480469 1.746094,-6.878907 V 43.945312 h 6.039063 v 20.480469 c 0,3.863281 -0.484376,6.628907 -1.453126,8.304688 -0.96875,1.675781 -2.371093,2.992187 -4.203124,3.957031 -1.832032,0.960938 -4.152344,1.441406 -6.960938,1.441406 -2.765625,0 -5.140625,-0.449218 -7.125,-1.339844 -1.980469,-0.894531 -3.550781,-2.226562 -4.707031,-3.992187 -1.160157,-1.761719 -1.738281,-4.578125 -1.738281,-8.4375 z m 0,0"
       id="path101" />
    <path
       style="fill:#ffffff;fill-opacity:1;fill-rule:nonzero;stroke:none"
       d="m 84.46875,69.136719 v 0.886719 l 0.261719,-0.234376 c -0.0625,-0.25 -0.113281,-0.496093 -0.160157,-0.746093 z m 0,0"
       id="path103" />
    <path
       style="fill:#0c87d1;fill-opacity:1;fill-rule:nonzero;stroke:none"
       d="m 88.921875,59.308594 c 0,-0.144532 0.109375,-0.289063 0.257813,-0.289063 0.148437,0 0.257812,0.144531 0.257812,0.289063 0,0.148437 -0.109375,0.257812 -0.257812,0.257812 -0.148438,0 -0.257813,-0.109375 -0.257813,-0.257812"
       id="path105" />
    <path
       style="fill:#0c87d1;fill-opacity:1;fill-rule:nonzero;stroke:none"
       d="m 105.37109,67.40625 c -0.39843,-1.101562 -1.46875,-1.839844 -2.9414,-1.726562 -0.8086,-1.546876 -2.09766,-0.816407 -2.464846,-0.367188 0.402346,0.367188 0.730466,0.515625 1.210936,0.585938 v 0.332031 c -0.91797,-0.03516 -1.210936,-0.402344 -1.835936,-1.070313 -0.257813,2.210938 2.316406,2.988282 3.124996,1.183594 1.21485,-0.03906 1.95313,0.511719 2.21094,1.285156 0.25391,0.769532 0,1.621094 -0.40625,2.023438 -0.73437,0.882812 -1.91406,0.882812 -2.98047,0.328125 -0.66015,-0.328125 -1.363279,-1.027344 -1.988279,-1.6875 -0.914062,-1.03125 -1.4375,-1.476563 -2.136719,-1.84375 -0.386718,-0.183594 -0.769531,-0.273438 -1.144531,-0.328125 -0.21875,-0.04297 -0.4375,-0.07031 -0.65625,-0.07422 -0.214843,0 -0.40625,0.01953 -0.585937,0.05469 -1.574219,0.175782 -3.171875,0.949219 -5.082032,1.121094 h -1.03125 c -0.640624,0.558594 -1.203124,1.054688 -1.695312,1.492188 l -1.210938,1.046875 c 0.0039,0.01172 0.01172,0.01953 0.01172,0.02734 -0.519531,0.472657 -0.820312,0.746094 -0.820312,0.746094 0.144531,1.140625 0.179687,1.691406 0.179687,2.722656 0,0.847657 -0.03516,1.257813 -0.03516,1.625 -0.03516,0.363282 -0.113281,0.660157 -0.21875,0.953126 -0.07422,0.257812 -0.296875,0.476562 -0.664062,0.515624 -0.332032,0.07031 -1.109376,-0.515624 -1.363282,-0.148437 -0.21875,0.296875 0.03906,0.996094 0.253906,1.175781 h 2.175782 c 0.257815,-0.546874 0.36719,-0.878905 0.515628,-1.20703 0.1875,-0.261719 0.335937,-0.667969 0.476562,-0.925781 0.152344,-0.253906 0.296875,-0.625 0.371094,-0.878906 0.03516,-0.261719 0.148437,-0.519532 0.183594,-0.699219 0.152343,-0.410157 0.367187,-0.78125 0.515625,-0.992188 0.03516,-0.07031 0.07813,-0.125 0.117187,-0.183593 0.09766,0.144531 0.1875,0.285156 0.25,0.394531 0.519531,0.8125 0.957031,1.441406 1.695313,1.734375 0.292968,0.144531 0.476562,0.261718 0.585937,0.371094 0.109375,0.105468 0.109375,0.441406 0.07422,0.65625 0,0.300781 -0.113281,0.554687 -0.402344,0.664062 -0.480468,0.1875 -1.25,-0.511719 -1.550781,-0.140625 -0.253906,0.292969 0.03906,0.84375 0.300781,1.207031 h 1.980469 c 0.484375,-0.769531 0.667969,-1.835937 0.667969,-2.722656 0,-0.917969 0,-1.140625 -0.554688,-1.359375 -0.183594,-0.113281 -0.367187,-0.554687 -0.515625,-1.03125 0,-0.05469 0.0039,-0.148437 0.0039,-0.253906 0.949218,-0.3125 1.996093,-0.867188 3.140624,-1.710938 0.0078,0.152344 0.01172,0.304688 0.02344,0.457031 0.183594,1.253907 0.328125,2.390626 1.289062,3.3125 0.253907,0.257813 0.472657,0.515626 0.511719,0.664063 0,0.109375 -0.148437,0.511719 -0.257812,0.699219 -0.21875,0.476562 -0.695313,0.878906 -1.0625,0.917968 -0.480469,0.07031 -1.035157,-0.550781 -1.40625,-0.179687 -0.328121,0.328125 0.113285,1.027344 0.335941,1.207031 h 2.023438 c 0.664062,-1.207031 1.582031,-2.242187 1.914062,-2.90625 0.183594,-0.476562 0.183594,-0.664062 -0.1875,-0.804687 -0.660156,-0.371094 -0.585937,-1.179688 -0.402344,-2.101563 0.05078,-0.152344 0.125,-0.304687 0.207032,-0.453125 0.5,1.394531 1.152344,2.695313 2.664062,3.101563 0.257813,0.03516 0.625,0.222656 0.664063,0.300781 0,0.07031 0,0.367187 -0.03906,0.582031 -0.07031,0.445313 -0.328125,0.960938 -0.664062,1.214844 -0.359375,0.296875 -1.28125,-0.664062 -1.582032,-0.109375 -0.21875,0.445313 0.148438,1.03125 0.335938,1.175781 h 1.949219 c 0.550778,-1.207031 1.031248,-2.28125 1.179688,-3.050781 0.14453,-0.921875 0.14453,-1.253906 -0.55469,-1.398437 -0.367186,-0.04297 -0.664061,-0.1875 -0.773436,-0.703126 -0.257812,-0.917968 -0.21875,-2.464843 -0.914062,-3.527343 0.769531,0.914062 1.613278,1.578125 2.347658,1.949219 1.69531,0.917968 3.46093,0.582031 4.30468,-0.628907 0.55469,-0.921875 0.55469,-1.949219 0.33203,-2.613281"
       id="path107" />
    <path
       style="fill:#0c87d1;fill-opacity:1;fill-rule:nonzero;stroke:none"
       d="m 96.539062,57.175781 c 4.382818,-4.15625 10.382818,-8.574219 17.964848,-10.449219 -6.40235,2.277344 -15.203129,8.28125 -17.964848,10.449219 M 84.027344,55.042969 c 0.699218,-7.511719 4.121094,-13.027344 6.445312,-15.566407 -3.351562,4.929688 -5.265625,11.777344 -6.445312,15.566407 m 3.199218,1.027343 c -0.03516,-0.292968 -0.179687,-0.472656 -0.4375,-0.625 0.515626,-1.25 1.023438,-2.246093 2.023438,-3.570312 -0.921875,1.84375 -1.363281,3.386719 -1.585938,4.195312 M 122.26953,44.074219 c -1.51172,-0.183594 -4.9375,0.183593 -7.8789,0.84375 1.83984,-0.917969 2.35546,-1.0625 3.01953,-1.472657 0.17968,-0.105468 0.29297,-0.367187 0.29297,-0.769531 0,-0.441406 -0.40235,-0.515625 -0.87891,-0.441406 -0.48438,0.03516 -1.51172,0.402344 -2.76563,0.84375 -2.5039,1.03125 -6.10546,2.722656 -10.3789,5.601563 -3.753909,2.574218 -6.253909,4.777343 -8.980471,7.539062 -0.710938,0.726562 -1.527344,1.632812 -2.378907,2.636719 -0.191406,-0.332031 -0.304687,-0.410157 -0.636718,-0.316407 0.957031,-2.171874 1.0625,-2.285156 1.582031,-3.53125 0.21875,-0.59375 0.109375,-1.035156 -0.109375,-1.289062 -0.296875,-0.519531 -0.703125,-0.148438 -0.957031,0.03906 -0.402344,0.476563 -0.515625,0.585938 -1.398438,1.6875 1.101563,-3.679687 1.691407,-3.972656 2.722657,-6.074218 0.113281,-0.253906 0.113281,-0.691406 -0.03906,-1.027344 -0.109375,-0.257812 -0.257813,-0.40625 -0.476563,-0.292969 -0.40625,0.183594 -0.515624,0.398438 -1.289062,1.320313 1.101562,-2.097656 2.613281,-4.5625 2.761719,-4.964844 0.183593,-0.441406 0.4375,-0.515625 -0.03516,-1.175781 -0.371093,-0.554688 -0.699218,-0.152344 -0.960937,0.109375 -0.21875,0.105468 -0.664063,0.625 -1.433594,1.546875 1.617188,-3.023438 3.132813,-4.417969 3.421875,-4.933594 0.367188,-0.589844 0.40625,-0.738281 0.113282,-1.398437 -0.261719,-0.589844 -0.777344,-0.332032 -1.03125,0 -1.144532,1.101562 -1.070313,0.847656 -2.984376,3.054687 0.996094,-2.617187 2.730469,-4.601563 3.347657,-5.632813 0.265625,-0.402343 0.296875,-0.550781 0.03906,-1.546874 -0.148435,-0.441405 -0.511717,-0.589842 -0.88281,-0.554686 -0.550781,0.113281 -1.066407,0.410156 -2.097657,1.289062 -2.097656,1.878907 -4.890624,4.605469 -7.175781,9.5 -2.210937,4.597657 -2.6875,8.945313 -2.6875,11.921876 0,4.632812 1.210938,8.640624 2.332031,11.160156 -0.0039,-0.09375 -0.01172,-0.167969 -0.01562,-0.265625 -0.07031,-1.25 0.148437,-2.6875 0.371093,-3.382813 0.464844,-1.84375 1.074219,-2.832031 1.585938,-3.632812 l -0.890625,-1.226563 1.179687,0.367188 -0.695312,-1.546875 c 0,0 0.886719,0.101562 1.574219,1.015625 0.425781,-0.386719 1.296874,-0.726563 2.140624,-0.05469 0.550782,-0.03906 0.882813,0.07422 1.179688,0.21875 0.625,0.367188 0.550781,1.03125 0.511719,1.175781 -0.328125,-0.292968 -1.25,-0.882812 -2.242188,-0.109374 l 1.839844,0.628906 -2.320313,0.179687 v 2.398438 l -2.761718,2.457031 v 0.941406 l 1.886718,-1.664062 v 0.871094 l -3.324218,2.992187 v 0.910156 l 4.199218,-3.777343 V 66.25 l 1.058594,-0.945312 0.0078,0.0078 c 0.625,-0.519531 0.882812,-0.773438 1.253906,-0.957031 0.441406,-0.296875 0.515625,0.03125 0.585937,0.511719 0.113282,0.402343 0.589844,0.8125 1.585938,-0.109376 2.945312,-2.652343 6.035156,-4.085937 9.308589,-5.664062 -1.76953,1.210938 -5.039058,3.011719 -6.148433,4.230469 -0.476562,0.550781 0,1.910156 0.773438,1.324219 1.402344,-0.921876 3.242185,-1.066407 4.160155,-1.03125 0.44141,0 0.92188,-0.292969 1.17969,-0.664063 0.25781,-0.332031 0.25781,-0.699219 -0.32813,-0.738281 3.01563,-0.914063 3.78907,-1.175782 6.29297,-1.394532 0.66016,-0.03906 1.06641,-0.40625 1.17578,-0.960937 0.11328,-0.511719 -0.14843,-0.660156 -0.76953,-0.734375 -0.73828,-0.105469 -2.03125,0.113281 -3.3164,0.332031 2.91015,-1.25 6.4414,-1.914062 9.23828,-2.722656 0.88281,-0.253906 0.99609,-0.515625 1.03125,-1.03125 0.10547,-0.550781 -0.33203,-0.550781 -1.32813,-0.550781 -2.01953,0.109375 -5.03906,0.292968 -9.64062,1.621094 4.34375,-2.171876 6.76953,-3.203126 10.71093,-4.195313 1.06641,-0.296875 1.25,-0.554687 1.32813,-1.105469 0.18359,-0.628906 -0.33594,-0.628906 -0.70313,-0.554687 -0.55078,0.03906 -1.875,0 -4.5664,0.808593 2.62109,-1.136718 5.48437,-2.464843 7.54687,-3.125 0.44532,-0.152343 0.69922,-0.441406 0.69922,-0.921874 0,-0.367188 -0.10937,-0.40625 -0.54687,-0.40625 -0.88672,0 -2.32422,0.296874 -4.05078,0.8125 3.53125,-1.507813 4.59765,-2.027344 6.95312,-2.429688 0.77344,-0.183594 0.92188,-0.441406 0.95703,-0.917969 0.11328,-0.664062 -0.33203,-0.628906 -0.84375,-0.664062"
       id="path109" />
  </g>
</svg>
